<?xml version="1.0" encoding="UTF-8"?>
<svg xmlns="http://www.w3.org/2000/svg" xmlns:xlink="http://www.w3.org/1999/xlink" width="24px" height="24px" viewBox="0 0 24 24" version="1.1">
<g id="surface1">
<path style=" stroke:none;fill-rule:nonzero;fill:rgb(0%,0%,0%);fill-opacity:1;" d="M 21.011719 17.222656 L 2.988281 17.222656 C 2.058594 17.222656 1.300781 17.976562 1.300781 18.90625 C 1.300781 19.835938 2.058594 20.589844 2.988281 20.589844 L 21.011719 20.589844 C 21.941406 20.589844 22.699219 19.835938 22.699219 18.90625 C 22.699219 17.976562 21.941406 17.222656 21.011719 17.222656 Z M 21.011719 17.222656 "/>
<path style=" stroke:none;fill-rule:nonzero;fill:rgb(0%,0%,0%);fill-opacity:1;" d="M 19.964844 15.96875 C 19.5625 15.296875 19.347656 14.527344 19.347656 13.75 L 19.347656 10.054688 C 19.347656 6.390625 16.640625 3.292969 13.03125 2.785156 C 13.296875 2.476562 13.441406 2.09375 13.441406 1.683594 C 13.441406 0.753906 12.6875 0 11.757812 0 C 10.828125 0 10.074219 0.753906 10.074219 1.683594 C 10.074219 2.121094 10.25 2.539062 10.558594 2.855469 C 7.128906 3.539062 4.652344 6.542969 4.652344 10.054688 L 4.652344 13.75 C 4.652344 14.527344 4.4375 15.296875 4.035156 15.96875 L 3.964844 16.082031 L 20.035156 16.082031 Z M 19.964844 15.96875 "/>
<path style=" stroke:none;fill-rule:nonzero;fill:rgb(0%,0%,0%);fill-opacity:1;" d="M 9.464844 22.066406 C 9.660156 23.1875 10.621094 24 11.757812 24 C 12.894531 24 13.859375 23.1875 14.050781 22.066406 L 14.066406 21.980469 L 9.453125 21.980469 Z M 9.464844 22.066406 "/>
</g>
</svg>
